<svg xmlns="http://www.w3.org/2000/svg" viewBox="0 0 260 64" role="img" aria-labelledby="title desc">
  <title>WebmakerrPro Logo Dark</title>
  <desc>WebmakerrPro logotype for dark backgrounds</desc>
  <defs>
    <linearGradient id="wm-full-gradient-dark" x1="0%" y1="0%" x2="100%" y2="100%">
      <stop offset="0%" stop-color="#5F5CFF" />
      <stop offset="50%" stop-color="#704BFF" />
      <stop offset="100%" stop-color="#1CB5FF" />
    </linearGradient>
    <linearGradient id="wm-full-stroke-dark" x1="0%" y1="0%" x2="100%" y2="100%">
      <stop offset="0%" stop-color="#FFFFFF" stop-opacity="0.95" />
      <stop offset="100%" stop-color="#FFFFFF" stop-opacity="0.7" />
    </linearGradient>
  </defs>
  <rect x="0.5" y="0.5" width="63" height="63" rx="16" fill="url(#wm-full-gradient-dark)" />
  <path d="M16 21a2 2 0 0 1 1.92-1.45h4.5a2 2 0 0 1 1.86 1.27L31 36.49l6.72-15.67a2 2 0 0 1 1.86-1.27h4.5A2 2 0 0 1 46 21l5.32 19.8a2 2 0 0 1-1.93 2.52h-4.46a2 2 0 0 1-1.93-1.45l-3.33-10.88-6.16 13.5a2 2 0 0 1-3.64 0l-6.16-13.5-3.33 10.88a2 2 0 0 1-1.93 1.45h-4.46A2 2 0 0 1 10.68 40.8z" fill="none" stroke="url(#wm-full-stroke-dark)" stroke-width="3" stroke-linecap="round" stroke-linejoin="round" />
  <g fill="#F9FAFB" font-family="'Poppins', 'Segoe UI', sans-serif" font-size="24" font-weight="600" letter-spacing="0.5">
    <text x="80" y="36">Webmakerr</text>
    <text x="210" y="36" fill="#A5F3FC">Pro</text>
  </g>
</svg>
