<svg xmlns="http://www.w3.org/2000/svg" width="84" height="84" viewBox="0 0 84 84" role="img" aria-labelledby="title desc">
  <title>WebmakerrPro Login Icon</title>
  <desc>Stylized login avatar in WebmakerrPro brand colors</desc>
  <defs>
    <linearGradient id="login-gradient" x1="0%" y1="0%" x2="100%" y2="100%">
      <stop offset="0%" stop-color="#5F5CFF" />
      <stop offset="50%" stop-color="#6E4BFF" />
      <stop offset="100%" stop-color="#1CB5FF" />
    </linearGradient>
  </defs>
  <rect width="84" height="84" rx="24" fill="url(#login-gradient)" />
  <path d="M42 22a11 11 0 1 1-11 11A11 11 0 0 1 42 22zm0 28c10.36 0 20.4 4.61 24.53 13.6A3 3 0 0 1 63.84 68H20.16a3 3 0 0 1-2.69-4.4C21.6 54.61 31.64 50 42 50z" fill="#FFFFFF" opacity="0.95" />
  <path d="M42 27.5a7.5 7.5 0 1 1-7.5 7.5 7.5 7.5 0 0 1 7.5-7.5z" fill="#0F172A" opacity="0.15" />
</svg>
