<svg xmlns="http://www.w3.org/2000/svg" viewBox="0 0 64 64" role="img" aria-labelledby="title desc">
  <title>WebmakerrPro Icon</title>
  <desc>Abstract monogram logo for WebmakerrPro</desc>
  <defs>
    <linearGradient id="wm-gradient" x1="0%" y1="0%" x2="100%" y2="100%">
      <stop offset="0%" stop-color="#5F5CFF" />
      <stop offset="50%" stop-color="#7F4CFF" />
      <stop offset="100%" stop-color="#21C4FF" />
    </linearGradient>
    <linearGradient id="wm-stroke" x1="0%" y1="0%" x2="100%" y2="100%">
      <stop offset="0%" stop-color="#FFFFFF" stop-opacity="0.9" />
      <stop offset="100%" stop-color="#FFFFFF" stop-opacity="0.65" />
    </linearGradient>
  </defs>
  <rect width="64" height="64" rx="16" fill="url(#wm-gradient)" />
  <path d="M15 20.5a2 2 0 0 1 1.92-1.45h4.63a2 2 0 0 1 1.83 1.19l6.6 15.67 6.58-15.66a2 2 0 0 1 1.83-1.2h4.63A2 2 0 0 1 45.46 20l5.54 20.39a2 2 0 0 1-1.93 2.52h-4.58a2 2 0 0 1-1.94-1.47L40.1 30.4l-6.28 13.98a2 2 0 0 1-3.64 0l-6.29-13.98-2.46 11.03a2 2 0 0 1-1.95 1.47h-4.58a2 2 0 0 1-1.94-2.53z" fill="none" stroke="url(#wm-stroke)" stroke-width="3.2" stroke-linecap="round" stroke-linejoin="round" />
</svg>
