<svg xmlns="http://www.w3.org/2000/svg" width="84" height="84" viewBox="0 0 84 84" role="img" aria-labelledby="title desc">
  <title>WebmakerrPro Register Icon</title>
  <desc>Registration avatar icon in WebmakerrPro brand colors</desc>
  <defs>
    <linearGradient id="register-gradient" x1="0%" y1="0%" x2="100%" y2="100%">
      <stop offset="0%" stop-color="#21C4FF" />
      <stop offset="50%" stop-color="#5F5CFF" />
      <stop offset="100%" stop-color="#7F4CFF" />
    </linearGradient>
  </defs>
  <rect width="84" height="84" rx="24" fill="url(#register-gradient)" />
  <path d="M42 21.5a11.5 11.5 0 1 1-11.5 11.5A11.5 11.5 0 0 1 42 21.5zm0 29c10.94 0 21.32 4.9 25.68 14.4A3 3 0 0 1 64.92 68H19.08a3 3 0 0 1-2.76-4.1C20.68 46.9 31.06 42 42 42z" fill="#FFFFFF" opacity="0.96" />
  <path d="M60 40a3 3 0 0 1 3 3v5h5a3 3 0 0 1 0 6h-5v5a3 3 0 0 1-6 0v-5h-5a3 3 0 0 1 0-6h5v-5a3 3 0 0 1 3-3z" fill="#0F172A" opacity="0.2" />
</svg>
